<?xml version="1.0" encoding="UTF-8" standalone="no"?>
<!-- Generator: Adobe Illustrator 19.0.0, SVG Export Plug-In . SVG Version: 6.00 Build 0)  -->

<svg
   xmlns:osb="http://www.openswatchbook.org/uri/2009/osb"
   xmlns:dc="http://purl.org/dc/elements/1.1/"
   xmlns:cc="http://creativecommons.org/ns#"
   xmlns:rdf="http://www.w3.org/1999/02/22-rdf-syntax-ns#"
   xmlns:svg="http://www.w3.org/2000/svg"
   xmlns="http://www.w3.org/2000/svg"
   xmlns:sodipodi="http://sodipodi.sourceforge.net/DTD/sodipodi-0.dtd"
   xmlns:inkscape="http://www.inkscape.org/namespaces/inkscape"
   version="1.1"
   id="Layer_1"
   x="0px"
   y="0px"
   viewBox="0 0 291.32 291.32"
   style="enable-background:new 0 0 291.32 291.32;"
   xml:space="preserve"
   inkscape:version="0.91 r13725"
   sodipodi:docname="email.svg"><metadata
     id="metadata47"><rdf:RDF><cc:Work
         rdf:about=""><dc:format>image/svg+xml</dc:format><dc:type
           rdf:resource="http://purl.org/dc/dcmitype/StillImage" /><dc:title></dc:title></cc:Work></rdf:RDF></metadata><defs
     id="defs45"><linearGradient
       id="linearGradient5652"
       osb:paint="solid"><stop
         style="stop-color:#000000;stop-opacity:1;"
         offset="0"
         id="stop5654" /></linearGradient></defs><sodipodi:namedview
     pagecolor="#ffffff"
     bordercolor="#666666"
     borderopacity="1"
     objecttolerance="10"
     gridtolerance="10"
     guidetolerance="10"
     inkscape:pageopacity="0"
     inkscape:pageshadow="2"
     inkscape:window-width="1366"
     inkscape:window-height="706"
     id="namedview43"
     showgrid="false"
     inkscape:zoom="1.6202114"
     inkscape:cx="189.81129"
     inkscape:cy="168.71607"
     inkscape:window-x="-8"
     inkscape:window-y="-8"
     inkscape:window-maximized="1"
     inkscape:current-layer="g4188" /><g
     id="g3"><g
       id="g7" /></g><g
     id="g13" /><g
     id="g15" /><g
     id="g17" /><g
     id="g19" /><g
     id="g21" /><g
     id="g23" /><g
     id="g25" /><g
     id="g27" /><g
     id="g29" /><g
     id="g31" /><g
     id="g33" /><g
     id="g35" /><g
     id="g37" /><g
     id="g39" /><g
     id="g41" /><g
     id="g4188"
     transform="matrix(0.14250134,0,0,0.14250134,525.4796,432.38731)"><g
       id="g4198"><g
         id="g4202"><path
           transform="matrix(7.0174779,0,0,7.0174779,-3687.5415,-3034.2684)"
           id="path5"
           d="M145.66,0c80.113,0,145.66,65.547,145.66,145.66s-65.547,145.66-145.66,145.66S0,225.772,0,145.66   S65.547,0,145.66,0z"
           style="enable-background:new 0 0 291.31999999999999000 291.31999999999999000;fill:#DD4B39" /><path
           id="path4190"
           d="m -2086.3588,-2316.1433 c 0,-74.1119 -60.1332,-134.245 -134.2451,-134.245 l -912.4802,0 c -74.1121,0 -134.2452,60.1331 -134.2452,134.245 l 0,643.9903 c 0,74.112 60.1331,134.245 134.2452,134.245 l 912.6007,0 c 74.112,0 134.245,-60.133 134.245,-134.245 l 0,-643.9903 z m -83.9936,4.3382 c 1.9281,6.9895 3.0127,14.2199 3.0127,21.8119 l 0,590.4851 c 0,8.074 -0.8435,15.7864 -3.0127,23.1373 -1.9282,-4.2177 -4.4588,-8.1945 -7.9535,-11.6891 l -332.4793,-306.9319 340.4328,-316.8133 z m -935.6178,-59.41 858.8547,0 c 7.592,0 14.8224,1.6871 21.8118,3.7357 l -385.2614,358.6294 c -1.4461,1.4461 -2.0486,3.6152 -3.2537,5.3024 l -9.038,9.3994 -7.4715,0 c -9.279,15.5454 -26.3911,26.8732 -46.2747,26.8732 -19.7632,0 -36.9959,-11.3278 -46.2748,-26.8732 l -7.4714,0 -6.6279,-6.8689 c -1.5666,-2.5305 -2.7716,-5.3023 -4.9408,-7.4715 l -385.2614,-359.1113 c 6.7484,-1.8076 13.7378,-3.6152 21.2091,-3.6152 m -80.4987,81.2219 c 0,-7.833 1.4461,-15.3044 3.4947,-22.4143 l 341.1558,317.4157 -332.3588,306.8113 c -3.8562,3.8562 -6.6277,8.1945 -8.5559,12.8942 -2.4102,-7.5919 -3.6153,-15.7862 -3.6153,-24.2218 l -0.1205,-590.4851 0,0 z m 80.4987,671.1044 c -8.4354,0 -16.5093,-1.3256 -24.2219,-3.7357 4.6999,-1.9282 9.038,-4.8203 12.8943,-8.6766 l 334.2869,-308.6188 c 24.463,31.9344 63.0254,52.541 106.4079,52.541 43.6235,0 82.3064,-20.8476 106.7693,-53.0231 l 334.7688,309.1009 c 3.7359,3.7357 7.9537,6.628 12.5329,8.5561 -7.8329,2.5306 -16.0274,3.9766 -24.704,3.9766 l -858.7342,0 z"
           inkscape:connector-curvature="0"
           style="fill:#ececec;stroke:none;stroke-width:0.70174778;stroke-miterlimit:4;stroke-dasharray:none;stroke-opacity:1" /></g></g></g></svg>