<?xml version="1.0" encoding="UTF-8" standalone="no"?>
<svg id="svg2" xmlns:rdf="http://www.w3.org/1999/02/22-rdf-syntax-ns#" xmlns="http://www.w3.org/2000/svg" height="512" width="512" version="1.1" xmlns:cc="http://creativecommons.org/ns#" xmlns:dc="http://purl.org/dc/elements/1.1/">
 <metadata id="metadata10">
  <rdf:RDF>
   <cc:Work rdf:about="">
    <dc:format>image/svg+xml</dc:format>
    <dc:type rdf:resource="http://purl.org/dc/dcmitype/StillImage"/>
    <dc:title/>
   </cc:Work>
  </rdf:RDF>
 </metadata>
 <path id="path4" fill="#f03c2e" d="m502.34 278.8-223.54 223.54c-12.868 12.877-33.748 12.877-46.633 0-222.51-222.5-43.91-43.91-222.51-222.5-12.874-12.888-12.874-33.768 0-46.645l223.55-223.54c12.87-12.875 33.743-12.875 46.633 0l222.5 222.5c12.879 12.879 12.879 33.77 0 46.645"/>
 <path id="path3379" fill="#fff" d="m227.3 378.38c-0.45946-0.39028-0.83541-7.3103-0.83541-15.378v-14.668l-16.238 0.009c-15.032 0.008-16.754-0.19727-23.192-2.761-10.482-4.1738-17.143-10.144-28.722-25.745-5.7821-7.7902-13.323-16.612-16.758-19.603-3.4347-2.9916-5.8159-5.8021-5.2916-6.2456 1.7817-1.5074 13.972-0.43671 18.719 1.6441 5.3678 2.3529 11.832 7.8872 17.314 14.824 4.5859 5.8029 10.816 10.575 17.745 13.592 6.4265 2.798 20.224 3.7265 28.951 1.9482 5.2662-1.0731 6.3672-1.7152 6.9163-4.0334 1.8006-7.6022 4.579-15.499 6.1996-17.62 2.4427-3.197 1.5443-4.0235-5.3214-4.896-29.756-3.7814-53.75-19.738-61.746-41.061-2.1503-5.7346-2.5722-9.5352-2.6083-23.496-0.0612-23.702 3.1999-35.994 12.21-46.02l4.3414-4.8311-1.5576-7.0121c-2.6189-11.79-0.006-32.18 4.1228-32.178 0.77657 0.00045 4.9728 1.4317 9.3249 3.1806 5.7649 2.3166 10.422 5.3877 17.157 11.313l9.2437 8.1337 6.3233-2.4925c8.7034-3.4307 24.368-4.8659 46.372-4.2489 15.301 0.42908 20.006 0.96298 28.072 3.1853l9.6895 2.6698 10.356-8.2298c10.214-8.1173 17.634-12.124 23.518-12.698 4.0018-0.39084 6.1735 3.4447 7.7553 13.697 1.0395 6.7373 0.85853 9.0659-1.2584 16.196l-2.4724 8.3275 3.7109 3.594c5.9907 5.8019 10.45 15.192 11.874 25.005 2.0072 13.833 1.641 38.161-0.67516 44.859-5.266 15.228-18.351 27.905-36.312 35.18-9.6938 3.9263-23.285 7.4271-28.834 7.4271-4.0963 0-4.2032 1.4206-0.59861 7.9567l3.3619 6.096v32.269 32.269l-35.01 0.27589c-19.255 0.15175-35.386-0.0434-35.845-0.43372z"/>
</svg>
