<?xml version="1.0" encoding="UTF-8" standalone="no"?>
<!-- Generator: Adobe Illustrator 19.0.0, SVG Export Plug-In . SVG Version: 6.00 Build 0)  -->

<svg
   xmlns:osb="http://www.openswatchbook.org/uri/2009/osb"
   xmlns:dc="http://purl.org/dc/elements/1.1/"
   xmlns:cc="http://creativecommons.org/ns#"
   xmlns:rdf="http://www.w3.org/1999/02/22-rdf-syntax-ns#"
   xmlns:svg="http://www.w3.org/2000/svg"
   xmlns="http://www.w3.org/2000/svg"
   xmlns:sodipodi="http://sodipodi.sourceforge.net/DTD/sodipodi-0.dtd"
   xmlns:inkscape="http://www.inkscape.org/namespaces/inkscape"
   version="1.1"
   id="Layer_1"
   x="0px"
   y="0px"
   viewBox="0 0 291.32 291.32"
   style="enable-background:new 0 0 291.32 291.32;"
   xml:space="preserve"
   inkscape:version="0.91 r13725"
   sodipodi:docname="github.svg"><metadata
     id="metadata47"><rdf:RDF><cc:Work
         rdf:about=""><dc:format>image/svg+xml</dc:format><dc:type
           rdf:resource="http://purl.org/dc/dcmitype/StillImage" /><dc:title></dc:title></cc:Work></rdf:RDF></metadata><defs
     id="defs45"><linearGradient
       id="linearGradient5652"
       osb:paint="solid"><stop
         style="stop-color:#000000;stop-opacity:1;"
         offset="0"
         id="stop5654" /></linearGradient></defs><sodipodi:namedview
     pagecolor="#ffffff"
     bordercolor="#666666"
     borderopacity="1"
     objecttolerance="10"
     gridtolerance="10"
     guidetolerance="10"
     inkscape:pageopacity="0"
     inkscape:pageshadow="2"
     inkscape:window-width="1366"
     inkscape:window-height="706"
     id="namedview43"
     showgrid="false"
     inkscape:zoom="1.1456625"
     inkscape:cx="104.54549"
     inkscape:cy="164.2678"
     inkscape:window-x="-8"
     inkscape:window-y="-8"
     inkscape:window-maximized="1"
     inkscape:current-layer="g4188" /><g
     id="g3"><g
       id="g7" /></g><g
     id="g13" /><g
     id="g15" /><g
     id="g17" /><g
     id="g19" /><g
     id="g21" /><g
     id="g23" /><g
     id="g25" /><g
     id="g27" /><g
     id="g29" /><g
     id="g31" /><g
     id="g33" /><g
     id="g35" /><g
     id="g37" /><g
     id="g39" /><g
     id="g41" /><g
     id="g4188"
     transform="matrix(0.14250134,0,0,0.14250134,525.4796,432.38731)"><g
       id="g4198"><g
         id="g4202" /></g><g
       id="g5694"><path
         style="fill:#dd4b39"
         d="m -2665.3757,-3034.2684 c 562.1912,0 1022.1659,459.9746 1022.1659,1022.1658 0,562.1912 -459.9747,1022.16586 -1022.1659,1022.16586 -562.1912,0 -1022.1658,-459.98166 -1022.1658,-1022.16586 0,-562.1842 459.9746,-1022.1658 1022.1658,-1022.1658 z"
         id="path5"
         inkscape:connector-curvature="0" /><path
         inkscape:connector-curvature="0"
         id="path5692"
         d="m -2712.974,-1292.176 c -18.9016,-8.829 -136.0964,-121.6632 -358.8072,-345.4567 -283.6614,-285.0403 -331.3673,-335.9095 -335.1637,-357.3876 -10.6036,-59.9901 -19.9781,-48.7497 345.7111,-414.5211 293.9014,-293.9673 344.7165,-341.9253 366.2849,-345.6899 59.8157,-10.4405 49.476,-19.0165 408.328,338.6769 367.3248,366.1388 366.6677,365.3417 349.536,424.0008 -7.4238,25.4193 -54.8328,75.9704 -336.1261,358.4037 -320.1789,321.4764 -357.8175,355.0855 -397.6581,355.0855 -7.7192,0 -26.6664,-5.9002 -42.1049,-13.1116 z m 363.1904,-1047.9382 -321.0141,-321.0709 -70.0947,70.0947 -70.0947,70.0947 48.8184,49.1953 c 48.2752,48.648 49.2342,49.1953 86.1968,49.1953 70.329,0 109.395,37.5543 111.6665,107.3453 l 1.324,40.6792 79.0036,80.3723 79.0036,80.3723 39.6974,0 c 111.857,0 152.5336,130.5698 61.7842,198.3241 -68.1129,50.8536 -171.849,-9.5313 -166.4759,-96.9058 1.9426,-31.5897 1.7981,-31.8029 -71.2817,-105.1322 -40.2756,-40.4131 -75.6532,-73.4784 -78.6168,-73.4784 -2.9637,0 -5.3885,90.1256 -5.3885,200.2792 l 0,200.2792 27.4348,26.0981 c 45.4629,43.2478 47.618,110.2147 4.9209,152.9119 -69.1664,69.1664 -186.6303,23.3016 -186.714,-72.9041 -0.031,-36.16 13.0426,-63.6153 41.8266,-87.8354 l 21.3045,-17.9266 0,-213.3003 0,-213.3003 -16.6488,-8.9101 c -26.9705,-14.4342 -48.2622,-59.3557 -45.3699,-95.7218 2.4353,-30.6195 1.4071,-32.3562 -48.5145,-81.9446 l -51.0024,-50.6621 -217.4821,217.3972 -217.4821,217.3972 321.0283,321.0851 321.0282,321.0851 321.0783,-321.0213 321.0781,-321.0213 -321.014,-321.071 z"
         style="fill:#ffffff" /></g></g></svg>